<svg width="120" height="120" viewBox="0 0 120 120" fill="none" xmlns="http://www.w3.org/2000/svg">
<circle cx="60" cy="60" r="60" fill="#08B7BB"/>
<circle cx="60" cy="60" r="50" fill="white"/>
<path d="M97.9999 59.9581C97.9997 61.5984 97.479 63.1824 96.5354 64.4131L87.6949 75.9159L83.1974 81.7714C80.9693 84.6719 78.23 86.9948 75.1613 88.5859C72.0925 90.1769 68.7645 90.9999 65.3979 91H40.5037C37.2614 91.0002 34.0445 90.3416 31.0017 89.0546C30.1198 88.6786 29.3592 88.0011 28.8226 87.1132C28.2859 86.2254 27.9989 85.1698 28.0001 84.0888V62.0253C27.9909 60.8811 28.3087 59.7651 28.9047 58.8485C29.5008 57.932 30.342 57.2656 31.2994 56.9516C33.2292 56.3517 35.2196 56.0475 37.2187 56.0468C37.8587 56.0468 38.4894 56.079 39.1293 56.1432C40.1211 56.2386 41.1063 56.4091 42.0786 56.6538C42.6171 56.7927 43.1453 56.9419 43.6745 57.1228C45.4529 57.734 47.1592 58.5941 48.7549 59.684C49.4532 60.1467 50.247 60.3847 51.053 60.3731L65.0715 60.3636C65.893 60.3614 66.7069 60.5457 67.4663 60.906C68.2256 61.2663 68.9156 61.7954 69.4966 62.4629C69.6782 62.6682 69.8456 62.8895 69.9971 63.1249C70.8596 64.3818 71.3268 65.9371 71.3227 67.5379C71.3231 68.4815 71.1616 69.4159 70.8475 70.2877C70.5335 71.1595 70.073 71.9517 69.4924 72.6189C68.9118 73.2861 68.2225 73.8152 67.4639 74.176C66.7053 74.5369 65.8922 74.7224 65.0712 74.7219H47.2584C46.599 74.7282 45.9684 75.0336 45.5041 75.5718C45.0397 76.1099 44.7792 76.8371 44.7792 77.595C44.7792 78.3529 45.0397 79.0801 45.5041 79.6182C45.9684 80.1563 46.599 80.4618 47.2584 80.4681H65.0712C68.0519 80.4566 70.9078 79.0907 73.0155 76.6683C75.1232 74.246 76.3117 70.9638 76.3217 67.5381C76.3211 67.301 76.296 67.0649 76.2471 66.8346L79.9754 63.1251L86.8671 56.2698L88.2952 54.8522C89.1457 54.0068 90.1897 53.4602 91.3028 53.2775C92.416 53.0948 93.5514 53.2837 94.5737 53.8218C95.596 54.3599 96.4622 55.2244 97.0691 56.3123C97.6759 57.4003 97.9978 58.6658 97.9965 59.9581H97.9999Z" fill="#08B7BB"/>
<path d="M58.8749 53.2131C66.6149 53.2131 72.8894 46.0019 72.8894 37.1065C72.8894 28.2111 66.6149 21 58.8749 21C51.135 21 44.8605 28.2111 44.8605 37.1065C44.8605 46.0019 51.135 53.2131 58.8749 53.2131Z" fill="#08B7BB"/>
</svg>
